<svg id="battle-ship" xmlns:dc="http://purl.org/dc/elements/1.1/" xmlns:cc="http://creativecommons.org/ns#" xmlns:rdf="http://www.w3.org/1999/02/22-rdf-syntax-ns#" xmlns:svg="http://www.w3.org/2000/svg" xmlns="http://www.w3.org/2000/svg" viewBox="0 0 14.817897 11.580140125" version="1.1" x="0px" y="0px"><g transform="translate(19.554971,36.494729)"><path style="color:currentColor;font-style:normal;font-variant:normal;font-weight:normal;font-stretch:normal;font-size:medium;line-height:normal;font-family:sans-serif;font-variant-ligatures:normal;font-variant-position:normal;font-variant-caps:normal;font-variant-numeric:normal;font-variant-alternates:normal;font-feature-settings:normal;text-indent:0;text-align:start;text-decoration:none;text-decoration-line:none;text-decoration-style:solid;text-decoration-color:currentColor;letter-spacing:normal;word-spacing:normal;text-transform:none;writing-mode:lr-tb;direction:ltr;text-orientation:mixed;dominant-baseline:auto;baseline-shift:baseline;text-anchor:start;white-space:normal;shape-padding:0;clip-rule:nonzero;display:inline;overflow:visible;visibility:visible;opacity:1;isolation:auto;mix-blend-mode:normal;color-interpolation:sRGB;color-interpolation-filters:linearRGB;solid-color:currentColor;solid-opacity:1;vector-effect:none;fill:currentColor;fill-opacity:1;fill-rule:nonzero;stroke:none;stroke-width:0.52916;stroke-linecap:round;stroke-linejoin:round;stroke-miterlimit:4;stroke-dasharray:none;stroke-dashoffset:0;stroke-opacity:1;color-rendering:auto;image-rendering:auto;shape-rendering:auto;text-rendering:auto;enable-background:accumulate" d="m -14.532179,-36.494517 c -0.06869,0.002 -0.133957,0.0308 -0.181899,0.08009 -0.679732,0.679706 -1.359412,1.359412 -2.039118,2.039118 h -1.261411 c -0.249949,0 -0.484711,0.195261 -0.484711,0.463015 v 1.124995 h -0.790644 c -0.186503,-1.06e-4 -0.314586,0.187587 -0.246483,0.361204 l 1.98435,5.027549 c 0.03979,0.101361 0.137582,0.167982 0.246483,0.167929 h 10.1873614 c 0,0 0.177057,-0.04858 0.224787,-0.127104 l 2.117169,-3.43954 c 0.107976,-0.176739 -0.01982,-0.403379 -0.22685,-0.402558 h -1.053161 c -0.155414,-0.554613 -0.361813,-1.118301 -0.546226,-1.671723 -0.03598,-0.108636 -0.137713,-0.181819 -0.252171,-0.181369 h -1.322371 v -2.644768 c 0,-0.146948 -0.11869,-0.266194 -0.265611,-0.265612 h -1.0562567 c -0.1469213,-5.29e-4 -0.2661675,0.118664 -0.2656118,0.265612 v 2.644768 H -11.08695 c -0.114458,-5.29e-4 -0.216189,0.07268 -0.252172,0.181369 -0.178644,0.552708 -0.387292,1.122084 -0.546225,1.671723 h -0.672298 c -0.458914,-0.500639 -0.918225,-1.001092 -1.377139,-1.501704 -0.05022,-0.05471 -0.121071,-0.08588 -0.195339,-0.08578 h -0.659916 v -1.124995 c 0,-0.267807 -0.236322,-0.463015 -0.486271,-0.463015 h -0.728627 c 0.55456,-0.555406 1.110336,-1.109674 1.666034,-1.663943 0.17539,-0.168458 0.04979,-0.46447 -0.193276,-0.455263 z m 3.634377,3.970764 c 1.2873138,7.67e-4 2.5675104,0 3.8539784,0 l 0.441292,1.323932 h -4.7365904 z"/></g></svg>