<svg id="missile" xmlns="http://www.w3.org/2000/svg" xmlns:xlink="http://www.w3.org/1999/xlink" version="1.1" x="0px" y="0px" viewBox="0 0 512 640" enable-background="new 0 0 512 512" xml:space="preserve"><g><path fill="currentColor" d="M185.2,129h141.7c2.9,0,5.4-2.5,5.2-5.4C329.4,60.4,280.7,2,256,2c-24.7,0-73.4,60-76.1,121.6   C179.8,126.5,182.3,129,185.2,129z"/><path fill="currentColor" d="M380.7,356.1l-46.3-30.9c-1.4-0.9-2.3-2.5-2.3-4.2V184.9c0-2.8-2.3-5.1-5.1-5.1H184.9c-2.8,0-5.1,2.3-5.1,5.1V321   c0,1.7-0.9,3.3-2.3,4.2l-46.3,30.9c-1.4,0.9-2.3,2.5-2.3,4.2v144.6c0,4.1,4.5,6.5,7.9,4.2l67-49c0.9-0.6,1.9-1,3-1h98.3   c1.1,0,2.1,0.3,3,1l67,49c3.4,2.3,7.9-0.2,7.9-4.2V360.3C383,358.6,382.1,357,380.7,356.1z"/></g></svg>