<svg id="missile" xmlns="http://www.w3.org/2000/svg" xmlns:xlink="http://www.w3.org/1999/xlink" version="1.1" x="0px" y="0px" viewBox="0 0 100 125" enable-background="new 0 0 100 100" xml:space="preserve"><path fill="currentColor" d="M-3212.299,2194.426l-0.179,1.246c0,0.001-0.001,0.002-0.001,0.003c0,0.003,0,0.005,0,0.007l-0.195,1.164  l-0.187,1.243c0,0.002-0.002,0.003-0.002,0.005c0,0.003,0,0.006,0,0.009l-0.218,1.167l-0.195,1.13c0,0.001,0,0.001,0,0.001  l-0.18,1.062c0,0.001-0.001,0.001-0.001,0.002s0,0.002,0,0.003l-0.193,1.067l-0.156,1.023c0,0.002-0.002,0.003-0.002,0.005  c0,0.003,0,0.005,0,0.008l-0.178,0.958c0,0.001,0,0.002,0,0.002l-4.938,30.414l-0.45,3.367l-0.328,3.471l-0.163,3.418v3.482  l0.164,3.414l0.325,3.404l0.452,3.428l0.635,3.394l0.771,3.38l0.963,3.31l1.064,3.253l1.262,3.194c0,0.001,0,0.001,0,0.002  c0,0,0,0,0,0l0.185,0.472l0.218,0.387l0.254,0.419l0.283,0.401l0.3,0.366l0.334,0.364l0.348,0.362l0.37,0.296  c0,0,0.001,0.001,0.001,0.002l0.379,0.305l0.413,0.258l0.408,0.245l0.269,0.13l0.273-0.13l0.427-0.243l0.39-0.263l0.402-0.305  l0.358-0.292l0.354-0.361l0.308-0.361l0.304-0.37l0.278-0.405l0.258-0.425l0.23-0.381l0.174-0.466c0-0.001,0.001-0.001,0.001-0.002  c0-0.002,0-0.003,0-0.004l1.256-3.197l1.084-3.247l0.951-3.319l0.759-3.363l0.646-3.412l0.481-3.414l0.295-3.412l0.155-3.41v-3.484  l-0.155-3.426l-0.295-3.456l-0.481-3.374h0l-4.938-30.414c0,0,0,0,0-0.001l-0.163-0.963l-0.18-1.023v-0.001l-0.195-1.075  c0-0.001,0-0.002,0-0.003s-0.001-0.001-0.001-0.002l-0.18-1.062c0,0,0,0,0-0.001l-0.195-1.13c0-0.002,0-0.003,0-0.005  c0-0.001-0.001-0.002-0.001-0.003l-0.179-1.168l-0.218-1.245c0-0.002,0-0.004,0-0.006c0-0.001-0.002-0.002-0.002-0.003l-0.18-1.164  c0,0,0-0.001,0-0.002l-0.195-1.247c0-0.001,0-0.001,0-0.002c0-0.001-0.001-0.001-0.001-0.002l-0.18-1.227c0-0.001,0-0.002,0-0.003  l-0.171-1.23c0,0,0,0,0-0.001l-0.18-1.242v-0.001l-0.271-1.633h-2.057l-0.271,1.63l-0.156,1.238c0,0.001-0.001,0.002-0.002,0.003  c0,0.003,0.001,0.006,0,0.008l-0.188,1.234L-3212.299,2194.426z M-3211.375,2198.029v-1.25c0-0.001,0-0.002,0-0.004  c0-0.001,0-0.002,0-0.004l0.023-1.164c0-0.004,0.002-0.006,0.002-0.01c0-0.004-0.002-0.006-0.001-0.01l0.086-1.25  c0-0.001,0-0.002,0-0.003c0-0.001,0-0.002,0-0.003l0.102-1.227c0-0.002,0.001-0.003,0.001-0.005c0-0.002,0-0.003,0-0.005  l0.132-1.234c0-0.002,0.001-0.004,0.001-0.006c0-0.001,0-0.002,0-0.004l0.164-1.242c0.001-0.01,0.007-0.017,0.009-0.025  c0.006-0.029,0.017-0.055,0.029-0.082c0.009-0.02,0.017-0.039,0.029-0.058c0.018-0.027,0.041-0.05,0.066-0.072  c0.012-0.011,0.023-0.023,0.037-0.032c0.027-0.02,0.058-0.033,0.089-0.045c0.019-0.007,0.036-0.014,0.055-0.019  c0.011-0.003,0.02-0.009,0.031-0.011c0.018-0.002,0.034,0.004,0.052,0.004c0.018,0,0.035-0.006,0.053-0.004  c0.012,0.002,0.021,0.009,0.032,0.011c0.02,0.005,0.038,0.013,0.057,0.02c0.031,0.012,0.06,0.024,0.086,0.043  c0.016,0.011,0.028,0.024,0.042,0.037c0.022,0.021,0.043,0.042,0.061,0.067c0.013,0.02,0.021,0.04,0.031,0.062  c0.011,0.025,0.021,0.051,0.027,0.079c0.002,0.009,0.008,0.016,0.009,0.025l0.164,1.242c0,0.002,0,0.002,0,0.004  c0,0.002,0.001,0.002,0.001,0.004l0.141,1.234c0,0.002-0.001,0.005,0,0.008c0,0.002,0.001,0.004,0.002,0.007l0.094,1.227  c0,0.001,0,0.001,0,0.002s0,0.001,0,0.001l0.086,1.25c0,0.004-0.001,0.006-0.001,0.01c0,0.004,0.002,0.006,0.002,0.01l0.023,1.162  l0.031,1.25c0,0.004-0.001,0.007-0.001,0.01c0,0.004,0.001,0.007,0.001,0.011l-0.031,1.172c0,0.001,0,0.001,0,0.003  c0,0.001,0,0.002,0,0.003l-0.047,1.133c0,0.002-0.001,0.004-0.001,0.006c0,0.003,0.001,0.005,0.001,0.007l-0.078,1.062  c0,0.003-0.001,0.005-0.002,0.008c0,0.002,0,0.004,0,0.006l-0.117,1.074l-0.102,1.023c0,0.005-0.003,0.009-0.004,0.014  c0,0.004,0.001,0.009,0,0.014l-0.164,0.969c0,0.003-0.004,0.005-0.005,0.008c-0.016,0.084-0.061,0.155-0.122,0.213  c-0.009,0.009-0.016,0.018-0.026,0.025c-0.05,0.039-0.107,0.07-0.175,0.082c-0.022,0.004-0.044,0.006-0.066,0.006h0c0,0,0,0,0,0  s0,0,0,0h0c-0.021,0-0.043-0.002-0.066-0.006c-0.067-0.012-0.125-0.043-0.175-0.082c-0.01-0.008-0.017-0.017-0.026-0.025  c-0.061-0.058-0.106-0.129-0.122-0.213c-0.001-0.003-0.004-0.005-0.005-0.008l-0.164-0.969c0-0.004,0.001-0.008,0-0.011  c0-0.005-0.003-0.009-0.004-0.013l-0.109-1.023c0-0.001,0-0.002,0-0.003s-0.001-0.002-0.001-0.003l-0.102-1.078  c0-0.002,0-0.003,0-0.004c0-0.002-0.001-0.003-0.001-0.004l-0.078-1.062c0-0.002,0-0.004,0-0.005c0-0.002-0.001-0.003-0.001-0.005  l-0.055-1.133c0-0.004,0.001-0.006,0.001-0.01s-0.002-0.006-0.002-0.01V2198.029z"/><polygon fill="currentColor" points="-3214.598,2203.438 -3214.441,2202.414 -3214.439,2202.408 -3214.439,2202.403 -3214.245,2201.33   -3214.065,2200.268 -3214.065,2200.266 -3213.87,2199.133 -3213.869,2199.13 -3213.869,2199.128 -3213.652,2197.967   -3213.465,2196.72 -3213.464,2196.717 -3213.464,2196.713 -3213.269,2195.551 -3213.09,2194.309 -3213.09,2194.307   -3213.09,2194.305 -3212.902,2193.078 -3212.716,2191.848 -3212.617,2191.062 -3222.326,2191.062 -3222.326,2197.726   -3214.654,2203.744 "/><polygon fill="currentColor" points="-3208.197,2191.847 -3208.197,2191.85 -3208.025,2193.079 -3208.025,2193.081 -3207.845,2194.308   -3207.845,2194.31 -3207.651,2195.553 -3207.65,2195.555 -3207.471,2196.715 -3207.253,2197.96 -3207.253,2197.965   -3207.252,2197.969 -3207.072,2199.141 -3206.878,2200.266 -3206.878,2200.268 -3206.698,2201.33 -3206.504,2202.403   -3206.504,2202.404 -3206.503,2202.405 -3206.324,2203.429 -3206.324,2203.43 -3206.323,2203.432 -3206.271,2203.738   -3198.579,2197.725 -3198.579,2191.062 -3208.311,2191.062 "/><path fill="currentColor" d="M53.204,12.32C53.204,12.32,53.204,12.32,53.204,12.32c0-0.002-0.001-0.002-0.001-0.003l-0.101-1.34  l-0.161-1.328l-0.219-1.378c0,0,0,0,0-0.001L52.514,6.93l-0.255-1.321l-0.062-0.274l-0.046-0.167l-0.057-0.151l-0.07-0.109  l-0.136-0.185L51.812,4.66l-0.212-0.159l-0.096-0.063l-0.183-0.078L51.125,4.32h-0.28h-0.264l-0.203,0.038l-0.17,0.075l-0.092,0.064  l-0.219,0.164c-0.003,0.002-0.008,0.002-0.011,0.004c-0.004,0.003-0.007,0.008-0.011,0.011l-0.078,0.051l-0.094,0.156  C49.7,4.889,49.694,4.891,49.69,4.896c-0.004,0.007-0.005,0.016-0.01,0.022l-0.09,0.119l-0.06,0.136l-0.039,0.161l-0.061,0.274  L49.176,6.93l-0.208,1.336c0,0,0,0.001,0,0.002L48.764,9.65l-0.155,1.339c0,0,0,0,0,0.001l-0.131,1.321l-0.086,1.391l-0.078,1.335  v7.505l0.062,9.273c0,0.001,0,0.001,0,0.001c0,0.001,0,0.002,0,0.002c0,0.029-0.011,0.055-0.017,0.083  c-0.005,0.023-0.005,0.049-0.014,0.071c-0.008,0.018-0.022,0.031-0.032,0.047v44.288l0.062,9.328c0,0.001,0,0.001,0,0.001  c0,0.001,0,0.002,0,0.002v4.786l0.028,0.173l0.196,0.291l0.375,0.25l0.551,0.251l0.631,0.142l0.013,0.002v-4.402  c0-0.002,0.001-0.004,0.001-0.006s-0.001-0.004-0.001-0.006l0.273-9.156c0-0.025,0.011-0.049,0.017-0.072  c0.005-0.022,0.005-0.046,0.014-0.066c0.001-0.003,0.002-0.006,0.003-0.008c0.057-0.143,0.188-0.242,0.339-0.238  c0.006,0,0.01-0.003,0.016-0.003c0.001,0,0.003,0.001,0.005,0.001s0.004-0.002,0.007-0.002s0.004,0.002,0.007,0.002  c0.002,0,0.003-0.001,0.005-0.001c0.007,0,0.012,0.004,0.019,0.005c0.148-0.002,0.277,0.096,0.336,0.234  c0.001,0.004,0.002,0.007,0.004,0.01c0.008,0.021,0.009,0.047,0.014,0.07s0.016,0.045,0.016,0.068l0.266,9.156  c0,0.002,0,0.004,0,0.006s0,0.004,0,0.006v4.402l0.027-0.002l0.646-0.141l0.523-0.248l0.375-0.254l0.215-0.312l0.047-0.172v-0.204  l-0.064-0.229c-0.033-0.121-0.003-0.24,0.064-0.335v-3.999v-0.303c-0.001-0.006-0.004-0.011-0.004-0.017s0.003-0.012,0.004-0.018  l0.016-8.992V31.896c-0.006-0.025-0.016-0.05-0.016-0.077v-0.263c-0.001-0.005-0.004-0.01-0.004-0.016s0.003-0.011,0.004-0.017  l0.016-8.979v-7.511l-0.039-1.338L53.204,12.32z M51.506,33.377c0,0.008,0.004,0.015,0.003,0.022l-0.266,3.133  c-0.001,0.017-0.01,0.03-0.013,0.046c-0.004,0.021-0.007,0.04-0.014,0.059c-0.004,0.01-0.006,0.019-0.011,0.027  c-0.009,0.02-0.022,0.036-0.034,0.055c-0.012,0.016-0.021,0.033-0.034,0.047c-0.006,0.007-0.011,0.014-0.018,0.02  c-0.016,0.016-0.036,0.026-0.054,0.039c-0.018,0.011-0.031,0.023-0.05,0.031c-0.008,0.004-0.013,0.01-0.021,0.012  c-0.023,0.01-0.048,0.012-0.073,0.017c-0.015,0.003-0.028,0.011-0.044,0.013c-0.011,0.001-0.022,0.002-0.034,0.002h0h0h0h0  c-0.011,0-0.022-0.001-0.033-0.002c-0.016-0.002-0.028-0.01-0.043-0.013c-0.025-0.005-0.051-0.007-0.074-0.017  c-0.007-0.002-0.013-0.008-0.02-0.011c-0.019-0.009-0.033-0.021-0.05-0.032c-0.019-0.013-0.039-0.023-0.055-0.039  c-0.006-0.006-0.011-0.012-0.016-0.019c-0.014-0.015-0.023-0.031-0.034-0.048c-0.013-0.018-0.026-0.034-0.035-0.055  c-0.004-0.009-0.007-0.018-0.01-0.026c-0.007-0.019-0.009-0.038-0.014-0.058c-0.003-0.016-0.012-0.03-0.013-0.047L50.173,33.4  c-0.001-0.008,0.003-0.016,0.003-0.023c0-0.008-0.005-0.016-0.004-0.023l0.273-9.164c0-0.025,0.011-0.049,0.017-0.074  c0.005-0.021,0.005-0.044,0.013-0.064c0.001-0.002,0.001-0.005,0.003-0.008c0.058-0.145,0.189-0.248,0.343-0.238  c0.004,0,0.007-0.003,0.012-0.003c0.002,0,0.003,0.001,0.005,0.001c0.002,0,0.004-0.002,0.007-0.002s0.004,0.001,0.007,0.002  c0.002,0,0.003-0.001,0.005-0.001c0.005,0,0.01,0.003,0.015,0.003c0.15-0.006,0.281,0.096,0.34,0.237  c0.001,0.003,0.002,0.006,0.004,0.009c0.008,0.021,0.009,0.046,0.014,0.069s0.016,0.045,0.016,0.069l0.266,9.164  C51.511,33.361,51.506,33.369,51.506,33.377z"/><polygon fill="currentColor" points="54.144,31.41 58.517,31.322 54.156,23.994 "/><polygon fill="currentColor" points="47.525,23.994 43.201,31.322 47.575,31.411 "/><path fill="currentColor" d="M50.056,92.326c-0.004,0-0.008-0.003-0.012-0.004c-0.012-0.002-0.024-0.002-0.037-0.004l-0.695-0.156  c-0.015-0.004-0.026-0.014-0.041-0.018c-0.012-0.005-0.025-0.003-0.038-0.009l-0.499-0.228l0.551,2.152l0.118,0.176l0.225,0.191  l0.333,0.122l0.441,0.093h0.001l-0.202-2.302L50.056,92.326z"/><path fill="currentColor" d="M52.444,92.143c-0.017,0.005-0.029,0.016-0.046,0.02l-0.719,0.156c-0.012,0.003-0.022,0.002-0.033,0.004  c-0.005,0-0.008,0.004-0.014,0.004l-0.152,0.015l-0.196,2.304l0.025-0.002l0.439-0.093l0.309-0.118l0.24-0.205l0.14-0.181  l0.529-2.142l-0.482,0.229C52.472,92.139,52.457,92.138,52.444,92.143z"/><polygon fill="currentColor" points="47.575,85.227 47.525,77.76 43.197,85.096 "/><polygon fill="currentColor" points="58.521,85.096 54.156,77.76 54.144,85.227 "/><polygon fill="currentColor" points="54.143,90.048 58.812,89.914 58.812,85.887 54.143,86.026 "/><polygon fill="currentColor" points="42.909,89.914 47.578,90.048 47.578,86.026 42.909,85.887 "/></svg>